# xmcd
#
# Track frame offsets:
# 150
# 15691
# 28150
# 46526
# 59824
# 76371
# 94178
# 109780
# 122298
# 138925
# 157393
# 178349
#
# Disc length: 2643 seconds
#
#
# Revision: 0
# Processed by: cddbd v1.5.1PL2 Copyright (c) Steve Scherf et al.
# Submitted via: FreeRIP 2.944 
#
DISCID=a00a510c
DTITLE=Kevin Fowler - Loose, Loud and Crazy
DYEAR=2004
DGENRE=Country
TTITLE0=Loose,Loud and Crazy
TTITLE1=Get Along
TTITLE2=Hard Man To Love
TTITLE3=Ain't Drinkin' Anymore
TTITLE4=Political Incorrectness
TTITLE5=A Matter Of When
TTITLE6=Long Neckin'(Makes For Short Memories)
TTITLE7=Triple Crown
TTITLE8=Half
TTITLE9=I'll Try Anything Twice
TTITLE10=Lord Loves The Drinkin' Man
TTITLE11=Don't Touch My Willie
EXTD=
EXTT0=
EXTT1=
EXTT2=
EXTT3=
EXTT4=
EXTT5=
EXTT6=
EXTT7=
EXTT8=
EXTT9=
EXTT10=
EXTT11=
PLAYORDER=
